<?xml version="1.0" encoding="utf-8"?>
<!-- Generator: Adobe Illustrator 14.0.0, SVG Export Plug-In  -->
<!DOCTYPE svg PUBLIC "-//W3C//DTD SVG 1.1//EN" "http://www.w3.org/Graphics/SVG/1.1/DTD/svg11.dtd" [
	<!ENTITY ns_flows "http://ns.adobe.com/Flows/1.0/">
]>
<svg version="1.1"
	 xmlns="http://www.w3.org/2000/svg" xmlns:xlink="http://www.w3.org/1999/xlink" xmlns:a="http://ns.adobe.com/AdobeSVGViewerExtensions/3.0/"
	 x="0px" y="0px" width="338px" height="46px" viewBox="-4.108 -4.447 338 46" enable-background="new -4.108 -4.447 338 46"
	 xml:space="preserve">
<defs>
</defs>
<path fill="#35395D" d="M192.563,25.33h2.851l1.233,4.843l1.561-4.843h2.664l1.627,4.855l1.241-4.855h2.832l-2.833,7.692h-2.625
	l-1.558-4.629l-1.505,4.629h-2.635L192.563,25.33z"/>
<path fill="#35395D" d="M207.536,22.403h2.947v2.006h-2.947V22.403z M207.536,25.33h2.947v7.692h-2.947V25.33z"/>
<path fill="#35395D" d="M212.396,25.33h2.759v1.26c0.266-0.546,0.539-0.921,0.822-1.127c0.282-0.205,0.632-0.308,1.047-0.308
	c0.434,0,0.91,0.135,1.427,0.406l-0.912,2.101c-0.348-0.146-0.623-0.217-0.826-0.217c-0.387,0-0.686,0.159-0.898,0.478
	c-0.304,0.449-0.455,1.29-0.455,2.521v2.579h-2.963V25.33z"/>
<path fill="#35395D" d="M224,22.403h2.955v10.619H224V22.403z"/>
<path fill="#35395D" d="M228.947,22.403h2.948v2.006h-2.948V22.403z M228.947,25.33h2.948v7.692h-2.948V25.33z"/>
<path fill="#35395D" d="M242.317,29.907h-5.909c0.053,0.474,0.181,0.826,0.383,1.058c0.285,0.333,0.657,0.5,1.115,0.5
	c0.29,0,0.566-0.072,0.826-0.217c0.159-0.092,0.331-0.254,0.515-0.485l2.904,0.268c-0.444,0.772-0.98,1.327-1.608,1.662
	c-0.627,0.336-1.528,0.503-2.701,0.503c-1.019,0-1.82-0.144-2.403-0.431c-0.587-0.287-1.07-0.743-1.453-1.369
	c-0.385-0.625-0.577-1.361-0.577-2.205c0-1.203,0.386-2.176,1.155-2.919c0.771-0.743,1.834-1.116,3.191-1.116
	c1.101,0,1.971,0.167,2.607,0.5c0.638,0.333,1.123,0.816,1.456,1.448c0.333,0.633,0.499,1.456,0.499,2.47V29.907z M239.319,28.495
	c-0.057-0.569-0.212-0.978-0.46-1.224c-0.249-0.246-0.576-0.369-0.981-0.369c-0.469,0-0.844,0.185-1.123,0.557
	c-0.178,0.232-0.292,0.577-0.34,1.036H239.319z"/>
<path fill="#35395D" d="M243.543,22.403h2.977v3.679c0.294-0.309,0.628-0.541,1.004-0.695c0.374-0.155,0.788-0.232,1.241-0.232
	c0.937,0,1.712,0.337,2.324,1.011c0.613,0.674,0.921,1.641,0.921,2.901c0,0.84-0.14,1.58-0.42,2.22s-0.668,1.119-1.162,1.435
	c-0.496,0.317-1.045,0.474-1.648,0.474c-0.518,0-0.99-0.111-1.42-0.333c-0.322-0.174-0.676-0.5-1.058-0.978v1.138h-2.759V22.403z
	 M246.497,29.154c0,0.661,0.125,1.141,0.373,1.437c0.25,0.297,0.563,0.445,0.946,0.445c0.352,0,0.647-0.146,0.887-0.438
	c0.239-0.292,0.358-0.783,0.358-1.474c0-0.608-0.117-1.054-0.353-1.339c-0.233-0.286-0.517-0.428-0.85-0.428
	c-0.401,0-0.728,0.148-0.98,0.446C246.624,28.1,246.497,28.55,246.497,29.154z"/>
<path fill="#35395D" d="M261.962,29.907h-5.91c0.053,0.474,0.181,0.826,0.384,1.058c0.284,0.333,0.656,0.5,1.116,0.5
	c0.289,0,0.564-0.072,0.824-0.217c0.16-0.092,0.331-0.254,0.515-0.485l2.904,0.268c-0.443,0.772-0.98,1.327-1.607,1.662
	c-0.627,0.336-1.529,0.503-2.702,0.503c-1.019,0-1.819-0.144-2.405-0.431c-0.583-0.287-1.067-0.743-1.452-1.369
	c-0.384-0.625-0.576-1.361-0.576-2.205c0-1.203,0.387-2.176,1.157-2.919c0.77-0.743,1.833-1.116,3.189-1.116
	c1.101,0,1.971,0.167,2.608,0.5c0.636,0.333,1.121,0.816,1.456,1.448c0.332,0.633,0.499,1.456,0.499,2.47V29.907z M258.964,28.495
	c-0.059-0.569-0.213-0.978-0.461-1.224s-0.575-0.369-0.98-0.369c-0.469,0-0.844,0.185-1.124,0.557
	c-0.178,0.232-0.292,0.577-0.339,1.036H258.964z"/>
<path fill="#35395D" d="M263.316,25.33h2.745v1.253c0.41-0.512,0.826-0.878,1.246-1.097c0.42-0.22,0.932-0.33,1.536-0.33
	c0.814,0,1.454,0.243,1.915,0.728s0.692,1.235,0.692,2.25v4.889h-2.964v-4.23c0-0.483-0.089-0.824-0.267-1.025
	c-0.179-0.2-0.431-0.3-0.754-0.3c-0.357,0-0.647,0.135-0.87,0.405c-0.221,0.271-0.332,0.756-0.332,1.456v3.695h-2.948V25.33z"/>
<path fill="#35395D" d="M278.181,25.33h2.752v1.123c0.396-0.469,0.797-0.802,1.199-1c0.404-0.198,0.892-0.297,1.463-0.297
	c0.613,0,1.1,0.109,1.459,0.326c0.356,0.218,0.649,0.541,0.876,0.972c0.463-0.502,0.886-0.844,1.267-1.025
	c0.38-0.182,0.852-0.272,1.411-0.272c0.823,0,1.468,0.245,1.931,0.736c0.463,0.49,0.694,1.257,0.694,2.299v4.832h-2.955v-4.383
	c0-0.347-0.067-0.605-0.202-0.774c-0.198-0.266-0.443-0.398-0.737-0.398c-0.346,0-0.625,0.125-0.838,0.376
	c-0.211,0.251-0.316,0.654-0.316,1.21v3.969h-2.955v-4.238c0-0.337-0.02-0.567-0.059-0.688c-0.062-0.192-0.172-0.349-0.327-0.467
	c-0.154-0.119-0.337-0.178-0.545-0.178c-0.339,0-0.618,0.128-0.836,0.384c-0.219,0.256-0.327,0.676-0.327,1.26v3.926h-2.954V25.33z"
	/>
<path fill="#35395D" d="M301.097,33.022h-2.752v-1.246c-0.41,0.512-0.824,0.876-1.242,1.094c-0.418,0.218-0.93,0.326-1.539,0.326
	c-0.812,0-1.446-0.243-1.908-0.728c-0.461-0.485-0.692-1.232-0.692-2.241V25.33h2.962v4.23c0,0.483,0.09,0.826,0.269,1.029
	c0.181,0.202,0.431,0.304,0.754,0.304c0.353,0,0.641-0.135,0.865-0.405c0.226-0.271,0.337-0.756,0.337-1.456V25.33h2.947V33.022z"/>
<path fill="#35395D" d="M302.365,30.886l2.927-0.276c0.12,0.347,0.289,0.597,0.507,0.746c0.216,0.15,0.506,0.224,0.869,0.224
	c0.396,0,0.703-0.084,0.919-0.253c0.17-0.125,0.254-0.282,0.254-0.47c0-0.212-0.11-0.376-0.333-0.492
	c-0.159-0.082-0.582-0.183-1.267-0.304c-1.024-0.178-1.736-0.343-2.133-0.496c-0.399-0.151-0.735-0.408-1.008-0.77
	c-0.272-0.362-0.41-0.775-0.41-1.238c0-0.506,0.148-0.942,0.442-1.309c0.295-0.367,0.701-0.64,1.217-0.821
	c0.517-0.181,1.21-0.272,2.078-0.272c0.919,0,1.596,0.07,2.033,0.21c0.437,0.141,0.801,0.357,1.094,0.652
	c0.291,0.294,0.534,0.692,0.728,1.194l-2.797,0.275c-0.071-0.246-0.192-0.427-0.362-0.543c-0.231-0.155-0.511-0.232-0.839-0.232
	c-0.334,0-0.576,0.059-0.729,0.177c-0.151,0.118-0.229,0.261-0.229,0.431c0,0.188,0.097,0.33,0.289,0.426
	c0.194,0.097,0.614,0.183,1.262,0.26c0.981,0.111,1.709,0.266,2.188,0.463c0.479,0.198,0.844,0.48,1.098,0.846
	c0.253,0.367,0.379,0.77,0.379,1.208c0,0.444-0.133,0.876-0.402,1.295c-0.267,0.42-0.689,0.755-1.267,1.003
	c-0.576,0.248-1.363,0.372-2.358,0.372c-1.404,0-2.404-0.199-3.001-0.601C302.917,32.194,302.535,31.624,302.365,30.886z"/>
<path fill="#35395D" d="M312.057,22.403h2.948v2.006h-2.948V22.403z M312.057,25.33h2.948v7.692h-2.948V25.33z"/>
<path fill="#35395D" d="M316.888,22.403h3.014v5.481l2.201-2.555h3.629l-2.759,2.695l2.918,4.998h-3.321l-1.558-3.083l-1.11,1.084
	v1.999h-3.014V22.403z"/>
<path fill="#35395D" d="M326.79,30.066h3.15v2.956h-3.15V30.066z"/>
<rect y="17.138" fill="#35395D" width="181.804" height="21.025"/>
<path fill="#FFFFFF" d="M6.853,25.329h2.752v1.123c0.396-0.469,0.796-0.802,1.2-1s0.892-0.297,1.461-0.297
	c0.615,0,1.101,0.109,1.458,0.326c0.357,0.217,0.65,0.541,0.877,0.971c0.463-0.502,0.885-0.844,1.266-1.025
	c0.38-0.182,0.851-0.272,1.41-0.272c0.825,0,1.468,0.245,1.932,0.735c0.463,0.49,0.694,1.257,0.694,2.3v4.832H16.95v-4.382
	c0-0.348-0.068-0.606-0.202-0.775c-0.198-0.266-0.443-0.398-0.737-0.398c-0.346,0-0.625,0.126-0.837,0.376
	c-0.211,0.251-0.317,0.655-0.317,1.21v3.969h-2.956v-4.238c0-0.337-0.02-0.567-0.058-0.688c-0.063-0.193-0.172-0.349-0.327-0.467
	s-0.336-0.178-0.545-0.178c-0.339,0-0.619,0.128-0.836,0.384c-0.218,0.255-0.327,0.676-0.327,1.26v3.926H6.853V25.329z"/>
<path fill="#FFFFFF" d="M29.919,33.021h-2.752v-1.246c-0.41,0.512-0.825,0.876-1.243,1.094c-0.417,0.218-0.931,0.326-1.539,0.326
	c-0.812,0-1.448-0.243-1.909-0.728c-0.461-0.485-0.691-1.232-0.691-2.241v-4.896h2.962v4.23c0,0.483,0.089,0.826,0.268,1.029
	c0.178,0.203,0.43,0.304,0.754,0.304c0.352,0,0.641-0.135,0.865-0.405c0.224-0.271,0.336-0.756,0.336-1.456v-3.702h2.948V33.021z"/>
<path fill="#FFFFFF" d="M31.335,30.884l2.926-0.275c0.121,0.348,0.29,0.597,0.506,0.746c0.218,0.149,0.508,0.224,0.871,0.224
	c0.395,0,0.703-0.084,0.919-0.252c0.169-0.126,0.254-0.283,0.254-0.471c0-0.212-0.112-0.376-0.333-0.492
	c-0.159-0.082-0.581-0.183-1.268-0.304c-1.023-0.178-1.734-0.343-2.133-0.496c-0.398-0.152-0.734-0.409-1.007-0.771
	c-0.273-0.362-0.409-0.774-0.409-1.237c0-0.506,0.147-0.943,0.442-1.31c0.294-0.367,0.7-0.64,1.217-0.821
	c0.516-0.182,1.209-0.272,2.079-0.272c0.917,0,1.594,0.07,2.032,0.21c0.437,0.14,0.801,0.357,1.094,0.651
	c0.292,0.295,0.535,0.692,0.728,1.195l-2.795,0.276c-0.072-0.246-0.193-0.428-0.362-0.543c-0.232-0.155-0.512-0.233-0.84-0.233
	c-0.333,0-0.576,0.059-0.729,0.178c-0.151,0.118-0.228,0.261-0.228,0.431c0,0.188,0.097,0.33,0.29,0.426
	c0.192,0.097,0.613,0.184,1.26,0.261c0.98,0.111,1.709,0.265,2.188,0.463c0.478,0.198,0.844,0.479,1.097,0.846
	c0.254,0.367,0.38,0.77,0.38,1.208c0,0.444-0.134,0.875-0.402,1.295c-0.268,0.42-0.691,0.754-1.268,1.002s-1.363,0.372-2.358,0.372
	c-1.405,0-2.406-0.2-3.002-0.601C31.886,32.193,31.504,31.623,31.335,30.884z"/>
<path fill="#FFFFFF" d="M41.175,22.402h2.948v2.007h-2.948V22.402z M41.175,25.329h2.948v7.692h-2.948V25.329z"/>
<path fill="#FFFFFF" d="M46.155,22.402h3.013v5.482l2.202-2.555h3.629l-2.76,2.695l2.919,4.998h-3.322l-1.558-3.083l-1.111,1.084v2
	h-3.013V22.402z"/>
<path fill="#FFFFFF" d="M58.885,27.82l-2.818-0.297c0.106-0.493,0.26-0.88,0.46-1.163c0.2-0.283,0.489-0.528,0.866-0.735
	c0.27-0.15,0.642-0.266,1.115-0.348c0.474-0.083,0.985-0.123,1.536-0.123c0.883,0,1.594,0.05,2.129,0.149
	c0.536,0.098,0.983,0.305,1.34,0.619c0.25,0.217,0.449,0.525,0.593,0.924c0.146,0.398,0.218,0.779,0.218,1.141v3.396
	c0,0.363,0.023,0.646,0.069,0.852c0.046,0.205,0.146,0.467,0.301,0.786h-2.767c-0.111-0.198-0.184-0.349-0.218-0.453
	c-0.033-0.104-0.067-0.267-0.101-0.489c-0.387,0.372-0.771,0.638-1.152,0.797c-0.521,0.212-1.127,0.318-1.818,0.318
	c-0.918,0-1.614-0.212-2.09-0.637c-0.476-0.425-0.713-0.949-0.713-1.572c0-0.584,0.171-1.065,0.514-1.441
	c0.343-0.377,0.976-0.657,1.898-0.84c1.105-0.223,1.823-0.377,2.151-0.468c0.329-0.089,0.676-0.206,1.044-0.351
	c0-0.362-0.076-0.616-0.225-0.761c-0.15-0.145-0.413-0.218-0.79-0.218c-0.483,0-0.844,0.078-1.086,0.232
	C59.152,27.26,59,27.487,58.885,27.82z M61.442,29.37c-0.406,0.146-0.829,0.274-1.268,0.385c-0.599,0.159-0.979,0.316-1.137,0.471
	c-0.165,0.16-0.247,0.34-0.247,0.543c0,0.231,0.081,0.421,0.242,0.568c0.162,0.147,0.4,0.222,0.714,0.222
	c0.329,0,0.633-0.08,0.917-0.239c0.282-0.16,0.482-0.354,0.601-0.583c0.119-0.229,0.178-0.528,0.178-0.895V29.37z"/>
<path fill="#FFFFFF" d="M66.341,22.402h2.956v10.619h-2.956V22.402z"/>
<path fill="#FFFFFF" d="M71.437,22.402h2.948v2.007h-2.948V22.402z M71.437,25.329h2.948v7.692h-2.948V25.329z"/>
<path fill="#FFFFFF" d="M84.956,29.906h-5.911c0.053,0.474,0.182,0.826,0.384,1.058c0.285,0.333,0.656,0.499,1.116,0.499
	c0.289,0,0.564-0.072,0.826-0.217c0.159-0.092,0.33-0.254,0.514-0.485l2.904,0.268c-0.444,0.772-0.98,1.327-1.608,1.662
	c-0.628,0.335-1.529,0.503-2.702,0.503c-1.019,0-1.82-0.144-2.405-0.431c-0.584-0.287-1.068-0.744-1.452-1.369
	c-0.384-0.625-0.576-1.36-0.576-2.206c0-1.202,0.385-2.175,1.156-2.919c0.77-0.742,1.833-1.115,3.19-1.115
	c1.102,0,1.971,0.167,2.608,0.5c0.637,0.333,1.123,0.815,1.456,1.448c0.333,0.633,0.5,1.456,0.5,2.47V29.906z M81.958,28.494
	c-0.058-0.569-0.211-0.978-0.46-1.224c-0.248-0.246-0.576-0.369-0.981-0.369c-0.468,0-0.843,0.186-1.124,0.558
	c-0.178,0.231-0.292,0.577-0.34,1.035H81.958z"/>
<path fill="#FFFFFF" d="M86.459,25.329h2.745v1.253c0.41-0.512,0.826-0.877,1.245-1.097c0.42-0.22,0.933-0.33,1.536-0.33
	c0.816,0,1.455,0.242,1.916,0.728c0.462,0.485,0.692,1.235,0.692,2.25v4.889H91.63v-4.23c0-0.483-0.089-0.825-0.268-1.025
	s-0.429-0.301-0.754-0.301c-0.357,0-0.647,0.135-0.869,0.406c-0.222,0.27-0.333,0.756-0.333,1.456v3.694h-2.948V25.329z"/>
<path fill="#FFFFFF" d="M96.501,22.402h2.948v3.913c0.401-0.416,0.8-0.713,1.195-0.892c0.396-0.179,0.865-0.268,1.405-0.268
	c0.802,0,1.434,0.244,1.895,0.731c0.46,0.488,0.691,1.237,0.691,2.246v4.889h-2.962v-4.23c0-0.483-0.09-0.825-0.268-1.025
	c-0.179-0.2-0.43-0.301-0.753-0.301c-0.358,0-0.647,0.135-0.869,0.406c-0.223,0.27-0.334,0.756-0.334,1.456v3.694h-2.948V22.402z"/>
<path fill="#FFFFFF" d="M109.232,27.82l-2.818-0.297c0.106-0.493,0.259-0.88,0.46-1.163c0.2-0.283,0.489-0.528,0.866-0.735
	c0.27-0.15,0.642-0.266,1.115-0.348c0.473-0.083,0.985-0.123,1.536-0.123c0.884,0,1.593,0.05,2.129,0.149
	c0.536,0.098,0.982,0.305,1.34,0.619c0.251,0.217,0.449,0.525,0.594,0.924c0.145,0.398,0.217,0.779,0.217,1.141v3.396
	c0,0.363,0.023,0.646,0.069,0.852c0.045,0.205,0.146,0.467,0.301,0.786h-2.768c-0.111-0.198-0.184-0.349-0.217-0.453
	c-0.034-0.104-0.068-0.267-0.101-0.489c-0.387,0.372-0.771,0.638-1.152,0.797c-0.521,0.212-1.127,0.318-1.817,0.318
	c-0.918,0-1.614-0.212-2.089-0.637c-0.477-0.425-0.714-0.949-0.714-1.572c0-0.584,0.171-1.065,0.515-1.441
	c0.343-0.377,0.975-0.657,1.898-0.84c1.105-0.223,1.823-0.377,2.15-0.468c0.33-0.089,0.677-0.206,1.043-0.351
	c0-0.362-0.075-0.616-0.224-0.761c-0.149-0.145-0.414-0.218-0.79-0.218c-0.482,0-0.845,0.078-1.087,0.232
	C109.5,27.26,109.348,27.487,109.232,27.82z M111.789,29.37c-0.406,0.146-0.828,0.274-1.268,0.385
	c-0.599,0.159-0.978,0.316-1.137,0.471c-0.164,0.16-0.247,0.34-0.247,0.543c0,0.231,0.082,0.421,0.244,0.568
	c0.162,0.147,0.399,0.222,0.713,0.222c0.329,0,0.634-0.08,0.917-0.239c0.281-0.16,0.481-0.354,0.6-0.583s0.178-0.528,0.178-0.895
	V29.37z"/>
<path fill="#FFFFFF" d="M116.587,25.329h2.746v1.253c0.409-0.512,0.826-0.877,1.246-1.097s0.931-0.33,1.536-0.33
	c0.815,0,1.454,0.242,1.916,0.728s0.692,1.235,0.692,2.25v4.889h-2.963v-4.23c0-0.483-0.089-0.825-0.267-1.025
	c-0.179-0.2-0.43-0.301-0.753-0.301c-0.358,0-0.648,0.135-0.87,0.406c-0.223,0.27-0.333,0.756-0.333,1.456v3.694h-2.949V25.329z"/>
<path fill="#FFFFFF" d="M134.728,22.402v10.619h-2.759v-1.138c-0.387,0.483-0.738,0.81-1.057,0.978
	c-0.425,0.223-0.899,0.333-1.42,0.333c-1.048,0-1.848-0.397-2.401-1.194c-0.553-0.797-0.829-1.765-0.829-2.905
	c0-1.275,0.305-2.25,0.915-2.926c0.612-0.676,1.388-1.014,2.33-1.014c0.458,0,0.875,0.078,1.249,0.231
	c0.375,0.155,0.707,0.387,0.996,0.695v-3.68H134.728z M131.772,29.153c0-0.604-0.128-1.055-0.384-1.351
	c-0.256-0.297-0.579-0.446-0.97-0.446c-0.344,0-0.631,0.143-0.862,0.428c-0.232,0.285-0.348,0.763-0.348,1.434
	c0,0.628,0.12,1.087,0.359,1.379c0.24,0.292,0.536,0.438,0.887,0.438c0.377,0,0.691-0.147,0.942-0.442
	S131.772,29.819,131.772,29.153z"/>
<path fill="#FFFFFF" d="M145.212,29.906h-5.911c0.053,0.474,0.181,0.826,0.384,1.058c0.286,0.333,0.657,0.499,1.116,0.499
	c0.29,0,0.564-0.072,0.826-0.217c0.159-0.092,0.33-0.254,0.515-0.485l2.904,0.268c-0.443,0.772-0.98,1.327-1.608,1.662
	c-0.627,0.335-1.528,0.503-2.701,0.503c-1.019,0-1.821-0.144-2.405-0.431c-0.585-0.287-1.069-0.744-1.452-1.369
	c-0.385-0.625-0.577-1.36-0.577-2.206c0-1.202,0.386-2.175,1.156-2.919c0.77-0.742,1.833-1.115,3.19-1.115
	c1.102,0,1.971,0.167,2.608,0.5c0.637,0.333,1.122,0.815,1.455,1.448c0.333,0.633,0.5,1.456,0.5,2.47V29.906z M142.214,28.494
	c-0.058-0.569-0.211-0.978-0.46-1.224c-0.248-0.246-0.576-0.369-0.982-0.369c-0.467,0-0.842,0.186-1.122,0.558
	c-0.179,0.231-0.292,0.577-0.341,1.035H142.214z"/>
<path fill="#FFFFFF" d="M146.816,22.402h2.955v10.619h-2.955V22.402z"/>
<path fill="#FFFFFF" d="M151.811,30.065h3.151v2.956h-3.151V30.065z"/>
<path fill="#FFFFFF" d="M164.991,22.402v10.619h-2.76v-1.138c-0.386,0.483-0.739,0.81-1.058,0.978
	c-0.424,0.223-0.898,0.333-1.419,0.333c-1.047,0-1.848-0.397-2.401-1.194c-0.552-0.797-0.829-1.765-0.829-2.905
	c0-1.275,0.306-2.25,0.916-2.926c0.611-0.676,1.388-1.014,2.33-1.014c0.458,0,0.874,0.078,1.249,0.231
	c0.375,0.155,0.707,0.387,0.996,0.695v-3.68H164.991z M162.035,29.153c0-0.604-0.128-1.055-0.384-1.351
	c-0.256-0.297-0.58-0.446-0.97-0.446c-0.342,0-0.63,0.143-0.861,0.428c-0.231,0.285-0.348,0.763-0.348,1.434
	c0,0.628,0.12,1.087,0.358,1.379c0.24,0.292,0.535,0.438,0.888,0.438c0.377,0,0.69-0.147,0.941-0.442
	C161.909,30.3,162.035,29.819,162.035,29.153z"/>
<path fill="#FFFFFF" d="M175.475,29.906h-5.911c0.054,0.474,0.182,0.826,0.384,1.058c0.285,0.333,0.657,0.499,1.116,0.499
	c0.29,0,0.565-0.072,0.826-0.217c0.16-0.092,0.33-0.254,0.514-0.485l2.905,0.268c-0.445,0.772-0.98,1.327-1.608,1.662
	c-0.628,0.335-1.529,0.503-2.703,0.503c-1.018,0-1.82-0.144-2.404-0.431c-0.584-0.287-1.069-0.744-1.452-1.369
	c-0.384-0.625-0.576-1.36-0.576-2.206c0-1.202,0.385-2.175,1.155-2.919c0.771-0.742,1.834-1.115,3.19-1.115
	c1.101,0,1.97,0.167,2.607,0.5c0.638,0.333,1.124,0.815,1.457,1.448c0.333,0.633,0.5,1.456,0.5,2.47V29.906z M172.475,28.494
	c-0.058-0.569-0.211-0.978-0.459-1.224c-0.248-0.246-0.576-0.369-0.981-0.369c-0.469,0-0.843,0.186-1.124,0.558
	c-0.178,0.231-0.292,0.577-0.34,1.035H172.475z"/>
<path fill="#35395D" d="M6.108,0.213h3.86v4.372h4.219V0.213h3.877v12.493h-3.877V7.653H9.969v5.053h-3.86V0.213z"/>
<path fill="#35395D" d="M28.346,10.644h-4.383l-0.608,2.062h-3.942l4.695-12.493h4.211l4.694,12.493h-4.043L28.346,10.644z
	 M27.545,7.942l-1.379-4.491l-1.365,4.491H27.545z"/>
<path fill="#35395D" d="M41.809,0.213h3.853v7.443c0,0.738-0.115,1.435-0.345,2.091c-0.23,0.655-0.591,1.229-1.082,1.72
	c-0.492,0.492-1.007,0.836-1.547,1.035c-0.75,0.278-1.65,0.417-2.701,0.417c-0.608,0-1.272-0.043-1.99-0.128
	c-0.719-0.086-1.319-0.254-1.803-0.507c-0.483-0.252-0.925-0.612-1.325-1.077c-0.4-0.466-0.674-0.945-0.822-1.439
	c-0.239-0.795-0.358-1.499-0.358-2.112V0.213h3.852v7.621c0,0.681,0.188,1.213,0.567,1.596c0.378,0.383,0.901,0.575,1.572,0.575
	c0.665,0,1.186-0.189,1.564-0.566c0.377-0.377,0.566-0.913,0.566-1.605V0.213z"/>
<path fill="#35395D" d="M47.58,8.574l3.673-0.231c0.079,0.597,0.241,1.052,0.485,1.364c0.398,0.506,0.966,0.759,1.705,0.759
	c0.551,0,0.976-0.129,1.274-0.388c0.298-0.258,0.447-0.558,0.447-0.899c0-0.324-0.142-0.613-0.426-0.869
	c-0.284-0.256-0.943-0.497-1.978-0.724c-1.692-0.381-2.9-0.886-3.622-1.517c-0.727-0.631-1.091-1.435-1.091-2.412
	c0-0.642,0.186-1.249,0.559-1.82c0.371-0.571,0.932-1.02,1.678-1.347C51.033,0.163,52.057,0,53.358,0
	c1.596,0,2.813,0.297,3.652,0.89c0.838,0.594,1.336,1.539,1.495,2.834l-3.638,0.213c-0.097-0.563-0.3-0.972-0.61-1.228
	c-0.31-0.256-0.737-0.383-1.283-0.383c-0.449,0-0.787,0.095-1.014,0.285c-0.228,0.19-0.341,0.422-0.341,0.695
	c0,0.199,0.094,0.378,0.281,0.537c0.182,0.164,0.614,0.318,1.296,0.46c1.687,0.364,2.896,0.731,3.625,1.104
	c0.73,0.372,1.261,0.834,1.594,1.385c0.333,0.552,0.499,1.167,0.499,1.849c0,0.802-0.221,1.54-0.665,2.216
	c-0.442,0.676-1.062,1.189-1.858,1.539c-0.795,0.35-1.798,0.524-3.008,0.524c-2.125,0-3.597-0.41-4.414-1.227
	C48.15,10.874,47.688,9.834,47.58,8.574z"/>
<path fill="#35395D" d="M66.799,0.213h5.735c1.131,0,2.043,0.153,2.74,0.459C75.97,0.98,76.545,1.42,77,1.994
	c0.455,0.574,0.784,1.242,0.988,2.003c0.205,0.761,0.307,1.567,0.307,2.42c0,1.335-0.152,2.371-0.456,3.106
	c-0.304,0.735-0.725,1.352-1.266,1.85c-0.539,0.497-1.119,0.828-1.738,0.992c-0.847,0.228-1.614,0.341-2.301,0.341h-5.735V0.213z
	 M70.659,3.042v6.826h0.946c0.806,0,1.38-0.089,1.721-0.268c0.341-0.179,0.607-0.492,0.802-0.938
	c0.193-0.446,0.289-1.168,0.289-2.168c0-1.324-0.215-2.23-0.648-2.719c-0.431-0.489-1.147-0.733-2.147-0.733H70.659z"/>
<path fill="#35395D" d="M80.35,0.213h10.346V2.88h-6.477v1.986h6.008v2.548h-6.008v2.463h6.665v2.829H80.35V0.213z"/>
<path fill="#35395D" d="M93.049,12.706V0.213h6.434c1.192,0,2.105,0.103,2.735,0.306c0.63,0.205,1.14,0.584,1.526,1.138
	c0.386,0.554,0.579,1.229,0.579,2.024c0,0.693-0.147,1.291-0.443,1.794c-0.295,0.502-0.702,0.91-1.219,1.223
	c-0.33,0.199-0.782,0.363-1.355,0.494c0.459,0.154,0.794,0.307,1.004,0.46c0.143,0.103,0.349,0.322,0.618,0.657
	s0.449,0.594,0.541,0.776l1.869,3.62h-4.362l-2.063-3.818c-0.261-0.494-0.495-0.814-0.699-0.962c-0.278-0.193-0.593-0.29-0.946-0.29
	h-0.341v5.07H93.049z M96.927,5.275h1.628c0.175,0,0.517-0.057,1.022-0.171c0.255-0.051,0.464-0.182,0.626-0.392
	c0.163-0.21,0.243-0.452,0.243-0.725c0-0.403-0.127-0.713-0.383-0.929c-0.256-0.216-0.736-0.324-1.441-0.324h-1.695V5.275z"/>
<path fill="#35395D" d="M112.421,0.213h5.077l1.958,7.601l1.944-7.601h5.074v12.493h-3.162V3.179l-2.436,9.527h-2.862l-2.431-9.527
	v9.527h-3.162V0.213z"/>
<path fill="#35395D" d="M137.103,0.213h3.852v7.443c0,0.738-0.115,1.435-0.345,2.091c-0.23,0.655-0.591,1.229-1.082,1.72
	c-0.492,0.492-1.007,0.836-1.547,1.035c-0.75,0.278-1.65,0.417-2.702,0.417c-0.608,0-1.271-0.043-1.99-0.128
	c-0.719-0.086-1.319-0.254-1.803-0.507c-0.483-0.252-0.924-0.612-1.326-1.077c-0.4-0.466-0.674-0.945-0.822-1.439
	c-0.239-0.795-0.358-1.499-0.358-2.112V0.213h3.853v7.621c0,0.681,0.189,1.213,0.566,1.596c0.378,0.383,0.902,0.575,1.572,0.575
	c0.665,0,1.186-0.189,1.564-0.566c0.377-0.377,0.566-0.913,0.566-1.605V0.213z"/>
<path fill="#35395D" d="M142.873,8.574l3.673-0.231c0.079,0.597,0.241,1.052,0.485,1.364c0.398,0.506,0.966,0.759,1.705,0.759
	c0.551,0,0.975-0.129,1.273-0.388c0.299-0.258,0.448-0.558,0.448-0.899c0-0.324-0.142-0.613-0.426-0.869
	c-0.284-0.256-0.943-0.497-1.977-0.724c-1.693-0.381-2.9-0.886-3.622-1.517c-0.727-0.631-1.091-1.435-1.091-2.412
	c0-0.642,0.186-1.249,0.559-1.82c0.371-0.571,0.931-1.02,1.679-1.347C146.325,0.163,147.35,0,148.651,0
	c1.597,0,2.813,0.297,3.652,0.89c0.838,0.594,1.336,1.539,1.495,2.834l-3.639,0.213c-0.097-0.563-0.3-0.972-0.61-1.228
	c-0.31-0.256-0.737-0.383-1.282-0.383c-0.45,0-0.787,0.095-1.015,0.285c-0.228,0.19-0.341,0.422-0.341,0.695
	c0,0.199,0.094,0.378,0.282,0.537c0.181,0.164,0.613,0.318,1.295,0.46c1.687,0.364,2.896,0.731,3.627,1.104
	c0.729,0.372,1.26,0.834,1.593,1.385c0.332,0.552,0.498,1.167,0.498,1.849c0,0.802-0.221,1.54-0.664,2.216
	c-0.443,0.676-1.063,1.189-1.858,1.539c-0.795,0.35-1.798,0.524-3.008,0.524c-2.125,0-3.597-0.41-4.415-1.227
	C143.443,10.874,142.98,9.834,142.873,8.574z"/>
<path fill="#35395D" d="M156.338,0.213h3.87v12.493h-3.87V0.213z"/>
<path fill="#35395D" d="M163.029,0.213h3.86v4.721l4.044-4.721h5.134l-4.559,4.715l4.764,7.777h-4.754l-2.635-5.137l-1.995,2.089
	v3.048h-3.86V0.213z"/>
</svg>
