<?xml version="1.0" encoding="utf-8"?>
<!-- Generator: Adobe Illustrator 14.0.0, SVG Export Plug-In  -->
<!DOCTYPE svg PUBLIC "-//W3C//DTD SVG 1.1//EN" "http://www.w3.org/Graphics/SVG/1.1/DTD/svg11.dtd" [
	<!ENTITY ns_flows "http://ns.adobe.com/Flows/1.0/">
]>
<svg version="1.1"
	 xmlns="http://www.w3.org/2000/svg" xmlns:xlink="http://www.w3.org/1999/xlink" xmlns:a="http://ns.adobe.com/AdobeSVGViewerExtensions/3.0/"
	 x="0px" y="0px" width="776px" height="106px" viewBox="-10.108 -8.947 776 106" enable-background="new -10.108 -8.947 776 106"
	 xml:space="preserve">
<defs>
</defs>
<path fill="#35395D" d="M441.354,58.055h6.533l2.827,11.101l3.576-11.101h6.106l3.729,11.129l2.843-11.129h6.493l-6.494,17.631
	h-6.014l-3.57-10.608l-3.452,10.608h-6.039L441.354,58.055z"/>
<path fill="#35395D" d="M475.669,51.348h6.757v4.599h-6.757V51.348z M475.669,58.055h6.757v17.631h-6.757V58.055z"/>
<path fill="#35395D" d="M486.809,58.055h6.325v2.889c0.608-1.251,1.236-2.111,1.885-2.582c0.646-0.47,1.446-0.705,2.398-0.705
	c0.996,0,2.086,0.31,3.271,0.93l-2.092,4.814c-0.797-0.332-1.428-0.498-1.893-0.498c-0.886,0-1.571,0.365-2.059,1.096
	c-0.697,1.029-1.046,2.955-1.046,5.777v5.91h-6.79V58.055z"/>
<path fill="#35395D" d="M513.404,51.348h6.773v24.338h-6.773V51.348z"/>
<path fill="#35395D" d="M524.743,51.348h6.757v4.599h-6.757V51.348z M524.743,58.055h6.757v17.631h-6.757V58.055z"/>
<path fill="#35395D" d="M555.39,68.547h-13.547c0.122,1.085,0.415,1.893,0.88,2.424c0.653,0.764,1.505,1.146,2.557,1.146
	c0.664,0,1.295-0.166,1.893-0.498c0.365-0.21,0.758-0.581,1.179-1.112l6.657,0.614c-1.019,1.771-2.247,3.041-3.686,3.81
	c-1.438,0.77-3.503,1.154-6.192,1.154c-2.335,0-4.173-0.329-5.512-0.988c-1.339-0.658-2.449-1.704-3.328-3.137
	c-0.881-1.434-1.32-3.119-1.32-5.056c0-2.756,0.883-4.986,2.648-6.69c1.765-1.704,4.202-2.557,7.312-2.557
	c2.523,0,4.516,0.382,5.977,1.146s2.573,1.87,3.337,3.32s1.146,3.337,1.146,5.661V68.547z M548.517,65.31
	c-0.133-1.306-0.484-2.241-1.055-2.806c-0.569-0.564-1.319-0.847-2.249-0.847c-1.073,0-1.932,0.426-2.573,1.278
	c-0.409,0.531-0.67,1.322-0.78,2.374H548.517z"/>
<path fill="#35395D" d="M558.195,51.348h6.823v8.434c0.675-0.708,1.441-1.239,2.299-1.594c0.858-0.354,1.808-0.531,2.848-0.531
	c2.147,0,3.924,0.771,5.329,2.316c1.405,1.543,2.108,3.76,2.108,6.648c0,1.926-0.321,3.622-0.963,5.088
	c-0.642,1.467-1.53,2.562-2.664,3.287c-1.135,0.726-2.394,1.088-3.777,1.088c-1.185,0-2.269-0.255-3.254-0.764
	c-0.741-0.398-1.55-1.146-2.424-2.241v2.606h-6.325V51.348z M564.969,66.82c0,1.517,0.285,2.615,0.854,3.295
	c0.57,0.682,1.293,1.021,2.167,1.021c0.808,0,1.485-0.335,2.034-1.004c0.547-0.67,0.821-1.796,0.821-3.379
	c0-1.395-0.269-2.418-0.806-3.071c-0.536-0.653-1.187-0.979-1.95-0.979c-0.919,0-1.669,0.34-2.249,1.021
	C565.259,64.404,564.969,65.437,564.969,66.82z"/>
<path fill="#35395D" d="M600.413,68.547h-13.547c0.122,1.085,0.415,1.893,0.88,2.424c0.653,0.764,1.505,1.146,2.557,1.146
	c0.664,0,1.295-0.166,1.893-0.498c0.365-0.21,0.758-0.581,1.179-1.112l6.657,0.614c-1.019,1.771-2.247,3.041-3.686,3.81
	c-1.438,0.77-3.503,1.154-6.192,1.154c-2.335,0-4.173-0.329-5.512-0.988c-1.339-0.658-2.449-1.704-3.328-3.137
	c-0.881-1.434-1.32-3.119-1.32-5.056c0-2.756,0.883-4.986,2.648-6.69c1.765-1.704,4.202-2.557,7.312-2.557
	c2.523,0,4.516,0.382,5.977,1.146s2.573,1.87,3.337,3.32s1.146,3.337,1.146,5.661V68.547z M593.54,65.31
	c-0.133-1.306-0.484-2.241-1.055-2.806c-0.569-0.564-1.319-0.847-2.249-0.847c-1.073,0-1.932,0.426-2.573,1.278
	c-0.409,0.531-0.67,1.322-0.78,2.374H593.54z"/>
<path fill="#35395D" d="M603.518,58.055h6.292v2.872c0.94-1.173,1.893-2.012,2.855-2.515c0.963-0.504,2.136-0.756,3.52-0.756
	c1.87,0,3.334,0.557,4.391,1.668c1.058,1.113,1.586,2.831,1.586,5.155v11.206h-6.79V65.99c0-1.106-0.205-1.89-0.614-2.35
	c-0.409-0.459-0.985-0.688-1.727-0.688c-0.819,0-1.483,0.31-1.992,0.93s-0.764,1.732-0.764,3.337v8.467h-6.757V58.055z"/>
<path fill="#35395D" d="M637.584,58.055h6.309v2.573c0.909-1.073,1.826-1.837,2.751-2.291c0.926-0.454,2.043-0.681,3.351-0.681
	c1.407,0,2.521,0.249,3.342,0.747s1.491,1.239,2.012,2.225c1.061-1.151,2.028-1.935,2.901-2.349
	c0.873-0.416,1.951-0.623,3.233-0.623c1.89,0,3.365,0.562,4.426,1.686c1.062,1.123,1.592,2.88,1.592,5.271v11.073h-6.773V65.642
	c0-0.797-0.154-1.389-0.463-1.776c-0.453-0.608-1.016-0.913-1.688-0.913c-0.795,0-1.435,0.288-1.92,0.863s-0.728,1.5-0.728,2.772
	v9.098h-6.773v-9.712c0-0.774-0.045-1.301-0.134-1.577c-0.144-0.442-0.394-0.8-0.749-1.07c-0.355-0.271-0.772-0.407-1.249-0.407
	c-0.778,0-1.417,0.293-1.916,0.88c-0.5,0.587-0.75,1.55-0.75,2.889v8.998h-6.773V58.055z"/>
<path fill="#35395D" d="M690.111,75.686h-6.309V72.83c-0.94,1.173-1.89,2.009-2.848,2.507c-0.957,0.498-2.133,0.747-3.527,0.747
	c-1.859,0-3.317-0.557-4.375-1.668c-1.057-1.113-1.585-2.825-1.585-5.139V58.055h6.79v9.695c0,1.106,0.205,1.893,0.614,2.357
	s0.985,0.697,1.727,0.697c0.808,0,1.47-0.31,1.983-0.93c0.516-0.62,0.772-1.732,0.772-3.337v-8.483h6.757V75.686z"/>
<path fill="#35395D" d="M693.017,70.788l6.707-0.631c0.276,0.797,0.664,1.367,1.162,1.71s1.162,0.515,1.992,0.515
	c0.907,0,1.61-0.193,2.108-0.58c0.388-0.287,0.581-0.646,0.581-1.077c0-0.486-0.255-0.862-0.764-1.128
	c-0.365-0.188-1.334-0.42-2.905-0.696c-2.347-0.408-3.977-0.787-4.889-1.136c-0.914-0.348-1.683-0.937-2.309-1.767
	c-0.625-0.828-0.938-1.774-0.938-2.836c0-1.161,0.338-2.161,1.013-3.002c0.675-0.84,1.604-1.468,2.789-1.882
	c1.185-0.415,2.772-0.622,4.765-0.622c2.103,0,3.655,0.16,4.656,0.481c1.002,0.321,1.838,0.819,2.508,1.494
	c0.669,0.675,1.226,1.588,1.668,2.739l-6.408,0.631c-0.166-0.564-0.442-0.979-0.83-1.245c-0.531-0.354-1.173-0.531-1.926-0.531
	c-0.764,0-1.32,0.136-1.668,0.406c-0.35,0.271-0.523,0.6-0.523,0.986c0,0.431,0.222,0.757,0.664,0.978
	c0.442,0.222,1.405,0.42,2.889,0.597c2.247,0.255,3.918,0.608,5.014,1.062c1.096,0.454,1.934,1.101,2.516,1.94
	c0.58,0.841,0.871,1.764,0.871,2.77c0,1.018-0.307,2.008-0.922,2.969c-0.613,0.962-1.582,1.729-2.904,2.298
	c-1.323,0.568-3.124,0.854-5.404,0.854c-3.221,0-5.515-0.459-6.881-1.378C694.281,73.787,693.404,72.481,693.017,70.788z"/>
<path fill="#35395D" d="M715.229,51.348h6.757v4.599h-6.757V51.348z M715.229,58.055h6.757v17.631h-6.757V58.055z"/>
<path fill="#35395D" d="M726.303,51.348h6.906V63.91l5.047-5.855h8.317l-6.325,6.176l6.69,11.455h-7.613l-3.57-7.067l-2.546,2.485
	v4.582h-6.906V51.348z"/>
<path fill="#35395D" d="M748.997,68.912h7.222v6.773h-7.222V68.912z"/>
<rect y="39.279" fill="#35395D" width="416.693" height="48.189"/>
<path fill="#FFFFFF" d="M15.707,58.053h6.309v2.573c0.909-1.073,1.826-1.837,2.751-2.291c0.925-0.454,2.042-0.681,3.35-0.681
	c1.408,0,2.521,0.249,3.342,0.747s1.491,1.24,2.012,2.225c1.061-1.151,2.028-1.934,2.901-2.349s1.951-0.623,3.233-0.623
	c1.89,0,3.365,0.562,4.426,1.685c1.061,1.124,1.592,2.88,1.592,5.271v11.073h-6.773V65.64c0-0.797-0.155-1.389-0.463-1.776
	c-0.452-0.608-1.015-0.913-1.688-0.913c-0.794,0-1.434,0.288-1.919,0.863c-0.485,0.576-0.728,1.5-0.728,2.772v9.098h-6.773v-9.712
	c0-0.774-0.044-1.3-0.133-1.577c-0.145-0.442-0.395-0.799-0.75-1.071c-0.355-0.271-0.772-0.407-1.25-0.407
	c-0.778,0-1.417,0.293-1.916,0.88c-0.5,0.587-0.75,1.55-0.75,2.889v8.998h-6.773V58.053z"/>
<path fill="#FFFFFF" d="M68.574,75.684h-6.309v-2.855c-0.941,1.173-1.89,2.009-2.847,2.507c-0.958,0.498-2.133,0.747-3.528,0.747
	c-1.859,0-3.318-0.556-4.375-1.668c-1.057-1.112-1.585-2.825-1.585-5.138V58.053h6.79v9.695c0,1.107,0.205,1.893,0.614,2.357
	c0.409,0.465,0.985,0.697,1.727,0.697c0.808,0,1.469-0.31,1.984-0.93c0.515-0.62,0.772-1.732,0.772-3.337v-8.483h6.757V75.684z"/>
<path fill="#FFFFFF" d="M71.819,70.786l6.707-0.631c0.276,0.797,0.664,1.367,1.162,1.71c0.498,0.343,1.162,0.515,1.992,0.515
	c0.907,0,1.61-0.193,2.108-0.58c0.387-0.287,0.581-0.646,0.581-1.078c0-0.486-0.255-0.862-0.764-1.127
	c-0.365-0.188-1.334-0.419-2.905-0.696c-2.347-0.409-3.976-0.788-4.889-1.136c-0.913-0.348-1.683-0.937-2.308-1.766
	c-0.625-0.829-0.938-1.774-0.938-2.836c0-1.161,0.337-2.162,1.013-3.002c0.675-0.84,1.604-1.468,2.789-1.882
	c1.184-0.415,2.772-0.622,4.765-0.622c2.103,0,3.655,0.161,4.657,0.481c1.001,0.321,1.837,0.819,2.507,1.494
	c0.669,0.675,1.226,1.588,1.668,2.739L83.557,63c-0.166-0.564-0.443-0.979-0.83-1.245c-0.531-0.354-1.173-0.531-1.926-0.531
	c-0.764,0-1.32,0.135-1.668,0.406s-0.523,0.6-0.523,0.986c0,0.431,0.221,0.757,0.664,0.978c0.442,0.221,1.405,0.42,2.889,0.597
	c2.247,0.254,3.918,0.608,5.014,1.062c1.096,0.453,1.934,1.1,2.515,1.94s0.872,1.764,0.872,2.77c0,1.017-0.307,2.007-0.921,2.969
	s-1.583,1.728-2.905,2.297c-1.323,0.569-3.124,0.854-5.404,0.854c-3.221,0-5.515-0.459-6.881-1.378
	C73.083,73.786,72.207,72.479,71.819,70.786z"/>
<path fill="#FFFFFF" d="M94.372,51.346h6.757v4.599h-6.757V51.346z M94.372,58.053h6.757v17.631h-6.757V58.053z"/>
<path fill="#FFFFFF" d="M105.785,51.346h6.906v12.562l5.047-5.855h8.317l-6.325,6.176l6.69,11.455h-7.613l-3.571-7.067l-2.545,2.485
	v4.582h-6.906V51.346z"/>
<path fill="#FFFFFF" d="M134.962,63.764l-6.458-0.681c0.243-1.129,0.595-2.017,1.054-2.665c0.459-0.647,1.121-1.209,1.984-1.685
	c0.62-0.343,1.472-0.608,2.557-0.797c1.085-0.188,2.258-0.282,3.52-0.282c2.025,0,3.652,0.114,4.881,0.34
	c1.229,0.227,2.252,0.7,3.071,1.419c0.575,0.498,1.029,1.204,1.361,2.117s0.498,1.785,0.498,2.615v7.786
	c0,0.83,0.053,1.48,0.157,1.951c0.105,0.471,0.335,1.071,0.689,1.801h-6.342c-0.255-0.454-0.421-0.799-0.498-1.038
	c-0.077-0.238-0.155-0.611-0.232-1.121c-0.886,0.853-1.766,1.461-2.64,1.826c-1.195,0.487-2.584,0.73-4.167,0.73
	c-2.103,0-3.7-0.487-4.79-1.461c-1.09-0.974-1.635-2.175-1.635-3.603c0-1.339,0.393-2.44,1.179-3.304
	c0.786-0.863,2.235-1.505,4.35-1.926c2.534-0.509,4.178-0.866,4.931-1.071c0.753-0.205,1.55-0.473,2.391-0.805
	c0-0.83-0.172-1.411-0.515-1.743s-0.946-0.498-1.81-0.498c-1.106,0-1.937,0.177-2.49,0.531C135.577,62.48,135.228,63,134.962,63.764
	z M140.823,67.316c-0.93,0.332-1.898,0.625-2.905,0.88c-1.372,0.365-2.241,0.725-2.606,1.079c-0.376,0.365-0.564,0.78-0.564,1.245
	c0,0.531,0.186,0.966,0.556,1.303c0.371,0.338,0.916,0.506,1.636,0.506c0.753,0,1.452-0.183,2.101-0.548
	c0.646-0.365,1.106-0.811,1.377-1.336c0.271-0.525,0.407-1.209,0.407-2.05V67.316z"/>
<path fill="#FFFFFF" d="M152.053,51.346h6.773v24.338h-6.773V51.346z"/>
<path fill="#FFFFFF" d="M163.732,51.346h6.757v4.599h-6.757V51.346z M163.732,58.053h6.757v17.631h-6.757V58.053z"/>
<path fill="#FFFFFF" d="M194.718,68.545h-13.547c0.122,1.085,0.415,1.893,0.88,2.424c0.653,0.764,1.505,1.146,2.557,1.146
	c0.664,0,1.295-0.166,1.893-0.498c0.365-0.21,0.758-0.581,1.179-1.112l6.657,0.614c-1.019,1.771-2.247,3.041-3.686,3.81
	s-3.503,1.154-6.192,1.154c-2.335,0-4.173-0.33-5.512-0.988s-2.449-1.704-3.328-3.138c-0.881-1.433-1.32-3.118-1.32-5.055
	c0-2.756,0.883-4.986,2.648-6.69c1.765-1.704,4.202-2.557,7.312-2.557c2.523,0,4.516,0.382,5.977,1.146s2.573,1.871,3.337,3.32
	c0.764,1.45,1.146,3.337,1.146,5.661V68.545z M187.845,65.308c-0.133-1.306-0.484-2.241-1.055-2.806
	c-0.569-0.564-1.319-0.847-2.249-0.847c-1.073,0-1.932,0.426-2.573,1.278c-0.409,0.531-0.67,1.323-0.78,2.374H187.845z"/>
<path fill="#FFFFFF" d="M198.163,58.053h6.292v2.872c0.941-1.173,1.893-2.011,2.855-2.515c0.963-0.503,2.137-0.755,3.52-0.755
	c1.871,0,3.334,0.556,4.391,1.668c1.059,1.112,1.586,2.831,1.586,5.155v11.206h-6.789v-9.695c0-1.106-0.205-1.89-0.615-2.349
	c-0.408-0.459-0.984-0.689-1.727-0.689c-0.818,0-1.482,0.31-1.992,0.93c-0.508,0.62-0.764,1.732-0.764,3.337v8.467h-6.756V58.053z"
	/>
<path fill="#FFFFFF" d="M221.181,51.346h6.758v8.965c0.918-0.952,1.832-1.632,2.738-2.042c0.908-0.409,1.982-0.614,3.221-0.614
	c1.838,0,3.285,0.559,4.342,1.677c1.057,1.118,1.586,2.833,1.586,5.146v11.206h-6.791v-9.695c0-1.106-0.205-1.89-0.613-2.349
	c-0.41-0.459-0.986-0.689-1.727-0.689c-0.82,0-1.484,0.31-1.992,0.93c-0.51,0.62-0.764,1.732-0.764,3.337v8.467h-6.758V51.346z"/>
<path fill="#FFFFFF" d="M250.358,63.764l-6.459-0.681c0.244-1.129,0.596-2.017,1.055-2.665s1.121-1.209,1.984-1.685
	c0.619-0.343,1.471-0.608,2.557-0.797c1.084-0.188,2.258-0.282,3.52-0.282c2.025,0,3.652,0.114,4.881,0.34
	c1.229,0.227,2.252,0.7,3.07,1.419c0.576,0.498,1.029,1.204,1.361,2.117s0.498,1.785,0.498,2.615v7.786
	c0,0.83,0.053,1.48,0.158,1.951c0.105,0.471,0.334,1.071,0.689,1.801h-6.342c-0.256-0.454-0.422-0.799-0.498-1.038
	c-0.078-0.238-0.156-0.611-0.232-1.121c-0.887,0.853-1.766,1.461-2.641,1.826c-1.195,0.487-2.584,0.73-4.166,0.73
	c-2.104,0-3.699-0.487-4.789-1.461c-1.092-0.974-1.637-2.175-1.637-3.603c0-1.339,0.393-2.44,1.18-3.304
	c0.785-0.863,2.234-1.505,4.35-1.926c2.533-0.509,4.178-0.866,4.93-1.071c0.754-0.205,1.551-0.473,2.391-0.805
	c0-0.83-0.172-1.411-0.514-1.743c-0.344-0.332-0.947-0.498-1.811-0.498c-1.105,0-1.936,0.177-2.49,0.531
	C250.972,62.48,250.624,63,250.358,63.764z M256.218,67.316c-0.93,0.332-1.898,0.625-2.904,0.88
	c-1.373,0.365-2.242,0.725-2.607,1.079c-0.375,0.365-0.564,0.78-0.564,1.245c0,0.531,0.186,0.966,0.557,1.303
	c0.371,0.338,0.916,0.506,1.635,0.506c0.754,0,1.453-0.183,2.102-0.548c0.646-0.365,1.105-0.811,1.377-1.336
	c0.271-0.525,0.406-1.209,0.406-2.05V67.316z"/>
<path fill="#FFFFFF" d="M267.216,58.053h6.293v2.872c0.939-1.173,1.893-2.011,2.855-2.515c0.963-0.503,2.135-0.755,3.52-0.755
	c1.869,0,3.334,0.556,4.391,1.668s1.586,2.831,1.586,5.155v11.206h-6.791v-9.695c0-1.106-0.205-1.89-0.613-2.349
	c-0.41-0.459-0.986-0.689-1.727-0.689c-0.82,0-1.484,0.31-1.992,0.93c-0.51,0.62-0.764,1.732-0.764,3.337v8.467h-6.758V58.053z"/>
<path fill="#FFFFFF" d="M308.794,51.346v24.338h-6.324v-2.606c-0.887,1.107-1.693,1.854-2.424,2.241
	c-0.975,0.509-2.059,0.764-3.254,0.764c-2.402,0-4.236-0.913-5.504-2.739s-1.9-4.045-1.9-6.657c0-2.922,0.699-5.157,2.1-6.707
	c1.4-1.549,3.18-2.324,5.338-2.324c1.051,0,2.006,0.177,2.863,0.531c0.857,0.354,1.619,0.886,2.283,1.594v-8.434H308.794z
	 M302.021,66.818c0-1.383-0.293-2.416-0.879-3.096c-0.588-0.681-1.328-1.021-2.225-1.021c-0.787,0-1.445,0.327-1.977,0.979
	c-0.531,0.653-0.797,1.749-0.797,3.287c0,1.439,0.275,2.493,0.822,3.163c0.549,0.67,1.227,1.004,2.033,1.004
	c0.863,0,1.584-0.337,2.158-1.013C301.733,69.447,302.021,68.346,302.021,66.818z"/>
<path fill="#FFFFFF" d="M332.825,68.545h-13.547c0.121,1.085,0.414,1.893,0.879,2.424c0.654,0.764,1.506,1.146,2.557,1.146
	c0.664,0,1.295-0.166,1.893-0.498c0.365-0.21,0.758-0.581,1.18-1.112l6.656,0.614c-1.018,1.771-2.246,3.041-3.686,3.81
	c-1.438,0.769-3.502,1.154-6.191,1.154c-2.336,0-4.174-0.33-5.512-0.988c-1.34-0.658-2.449-1.704-3.328-3.138
	c-0.881-1.433-1.32-3.118-1.32-5.055c0-2.756,0.883-4.986,2.648-6.69c1.764-1.704,4.201-2.557,7.312-2.557
	c2.523,0,4.516,0.382,5.977,1.146s2.572,1.871,3.336,3.32c0.764,1.45,1.146,3.337,1.146,5.661V68.545z M325.952,65.308
	c-0.133-1.306-0.484-2.241-1.055-2.806s-1.32-0.847-2.25-0.847c-1.072,0-1.932,0.426-2.572,1.278
	c-0.41,0.531-0.67,1.323-0.781,2.374H325.952z"/>
<path fill="#FFFFFF" d="M336.501,51.346h6.773v24.338h-6.773V51.346z"/>
<path fill="#FFFFFF" d="M347.948,68.91h7.223v6.773h-7.223V68.91z"/>
<path fill="#FFFFFF" d="M378.155,51.346v24.338h-6.326v-2.606c-0.885,1.107-1.693,1.854-2.424,2.241
	c-0.973,0.509-2.059,0.764-3.254,0.764c-2.4,0-4.236-0.913-5.504-2.739c-1.266-1.826-1.9-4.045-1.9-6.657
	c0-2.922,0.701-5.157,2.1-6.707c1.4-1.549,3.18-2.324,5.338-2.324c1.053,0,2.006,0.177,2.863,0.531
	c0.859,0.354,1.619,0.886,2.283,1.594v-8.434H378.155z M371.382,66.818c0-1.383-0.293-2.416-0.881-3.096
	c-0.586-0.681-1.328-1.021-2.225-1.021c-0.785,0-1.443,0.327-1.975,0.979c-0.531,0.653-0.797,1.749-0.797,3.287
	c0,1.439,0.273,2.493,0.82,3.163c0.549,0.67,1.227,1.004,2.035,1.004c0.863,0,1.582-0.337,2.158-1.013
	C371.093,69.447,371.382,68.346,371.382,66.818z"/>
<path fill="#FFFFFF" d="M402.185,68.545h-13.547c0.123,1.085,0.416,1.893,0.881,2.424c0.652,0.764,1.504,1.146,2.557,1.146
	c0.664,0,1.295-0.166,1.893-0.498c0.365-0.21,0.758-0.581,1.178-1.112l6.658,0.614c-1.02,1.771-2.248,3.041-3.686,3.81
	c-1.439,0.769-3.504,1.154-6.193,1.154c-2.334,0-4.172-0.33-5.512-0.988c-1.338-0.658-2.449-1.704-3.328-3.138
	c-0.881-1.433-1.32-3.118-1.32-5.055c0-2.756,0.883-4.986,2.648-6.69c1.766-1.704,4.203-2.557,7.312-2.557
	c2.523,0,4.516,0.382,5.977,1.146s2.574,1.871,3.338,3.32c0.764,1.45,1.145,3.337,1.145,5.661V68.545z M395.312,65.308
	c-0.133-1.306-0.484-2.241-1.055-2.806c-0.568-0.564-1.318-0.847-2.248-0.847c-1.074,0-1.932,0.426-2.574,1.278
	c-0.408,0.531-0.67,1.323-0.779,2.374H395.312z"/>
<path fill="#35395D" d="M14,0.488h8.849v10.02h9.668V0.488h8.888v28.635h-8.888V17.54h-9.668v11.583H14V0.488z"/>
<path fill="#35395D" d="M64.968,24.396H54.923l-1.396,4.727h-9.035L55.255,0.488h9.651l10.76,28.635h-9.266L64.968,24.396z
	 M63.133,18.204L59.972,7.911l-3.127,10.293H63.133z"/>
<path fill="#35395D" d="M95.826,0.488h8.829v17.06c0,1.692-0.264,3.289-0.791,4.792c-0.528,1.503-1.354,2.817-2.481,3.943
	c-1.126,1.125-2.308,1.916-3.545,2.371c-1.719,0.638-3.783,0.957-6.192,0.957c-1.394,0-2.914-0.098-4.561-0.292
	c-1.647-0.196-3.024-0.583-4.131-1.162s-2.119-1.402-3.037-2.469s-1.546-2.167-1.885-3.299c-0.547-1.822-0.821-3.436-0.821-4.841
	V0.488h8.829v17.466c0,1.562,0.433,2.781,1.299,3.659c0.866,0.878,2.067,1.317,3.604,1.317c1.523,0,2.718-0.433,3.584-1.298
	c0.866-0.865,1.299-2.091,1.299-3.679V0.488z"/>
<path fill="#35395D" d="M109.052,19.65l8.419-0.528c0.182,1.368,0.553,2.41,1.113,3.125c0.911,1.159,2.213,1.738,3.906,1.738
	c1.263,0,2.237-0.296,2.92-0.889c0.684-0.592,1.025-1.279,1.025-2.061c0-0.742-0.326-1.406-0.977-1.993
	c-0.651-0.586-2.162-1.139-4.532-1.66c-3.88-0.872-6.648-2.031-8.301-3.477c-1.667-1.446-2.5-3.288-2.5-5.528
	c0-1.472,0.427-2.862,1.28-4.17c0.853-1.309,2.135-2.337,3.848-3.086S119.313,0,122.295,0c3.659,0,6.449,0.68,8.37,2.041
	c1.92,1.361,3.063,3.525,3.428,6.495l-8.34,0.488c-0.222-1.289-0.687-2.227-1.396-2.813c-0.71-0.586-1.69-0.879-2.94-0.879
	c-1.029,0-1.804,0.218-2.324,0.654c-0.521,0.437-0.781,0.967-0.781,1.592c0,0.456,0.215,0.866,0.645,1.23
	c0.417,0.378,1.406,0.729,2.969,1.055c3.868,0.833,6.638,1.677,8.311,2.529c1.673,0.853,2.891,1.911,3.653,3.174
	s1.143,2.676,1.143,4.239c0,1.836-0.508,3.529-1.523,5.078c-1.016,1.55-2.436,2.725-4.258,3.526
	c-1.823,0.801-4.121,1.201-6.895,1.201c-4.87,0-8.243-0.938-10.118-2.812C110.36,24.923,109.299,22.541,109.052,19.65z"/>
<path fill="#35395D" d="M153.102,0.488h13.146c2.592,0,4.685,0.352,6.28,1.055c1.595,0.703,2.913,1.712,3.955,3.027
	c1.042,1.315,1.797,2.846,2.266,4.59c0.469,1.745,0.703,3.594,0.703,5.547c0,3.06-0.349,5.434-1.045,7.12
	c-0.696,1.687-1.663,3.099-2.9,4.239c-1.237,1.139-2.565,1.898-3.984,2.275c-1.94,0.521-3.699,0.781-5.274,0.781h-13.146V0.488z
	 M161.95,6.973v15.646h2.168c1.849,0,3.164-0.205,3.945-0.615s1.394-1.126,1.837-2.148c0.442-1.022,0.664-2.679,0.664-4.971
	c0-3.034-0.495-5.111-1.485-6.231c-0.989-1.12-2.63-1.68-4.922-1.68H161.95z"/>
<path fill="#35395D" d="M184.16,0.488h23.713v6.114h-14.845v4.551h13.771v5.84h-13.771v5.645h15.274v6.485H184.16V0.488z"/>
<path fill="#35395D" d="M213.267,29.123V0.488h14.747c2.735,0,4.825,0.234,6.271,0.703s2.61,1.338,3.496,2.607
	s1.328,2.816,1.328,4.639c0,1.589-0.339,2.959-1.016,4.111c-0.678,1.153-1.609,2.087-2.795,2.803
	c-0.756,0.456-1.792,0.833-3.107,1.133c1.054,0.352,1.821,0.704,2.303,1.056c0.325,0.235,0.797,0.736,1.415,1.505
	c0.618,0.77,1.031,1.362,1.24,1.779l4.284,8.297h-9.998l-4.729-8.75c-0.599-1.133-1.133-1.869-1.602-2.208
	c-0.638-0.442-1.36-0.664-2.168-0.664h-0.781v11.622H213.267z M222.154,12.09h3.73c0.403,0,1.185-0.13,2.344-0.391
	c0.586-0.117,1.064-0.417,1.436-0.898c0.372-0.481,0.558-1.035,0.558-1.66c0-0.924-0.293-1.634-0.88-2.129
	c-0.586-0.495-1.687-0.743-3.301-0.743h-3.887V12.09z"/>
<path fill="#35395D" d="M257.668,0.488h11.637l4.487,17.423l4.456-17.423h11.63v28.635h-7.247V7.286l-5.583,21.837h-6.56
	l-5.573-21.837v21.837h-7.247V0.488z"/>
<path fill="#35395D" d="M314.237,0.488h8.828v17.06c0,1.692-0.264,3.289-0.791,4.792s-1.354,2.817-2.48,3.943
	c-1.126,1.125-2.309,1.916-3.545,2.371c-1.719,0.638-3.783,0.957-6.192,0.957c-1.394,0-2.913-0.098-4.561-0.292
	c-1.647-0.196-3.024-0.583-4.131-1.162c-1.107-0.579-2.119-1.402-3.038-2.469c-0.918-1.067-1.546-2.167-1.885-3.299
	c-0.547-1.822-0.82-3.436-0.82-4.841V0.488h8.829v17.466c0,1.562,0.433,2.781,1.299,3.659c0.866,0.878,2.067,1.317,3.604,1.317
	c1.523,0,2.719-0.433,3.585-1.298c0.865-0.865,1.299-2.091,1.299-3.679V0.488z"/>
<path fill="#35395D" d="M327.462,19.65l8.419-0.528c0.182,1.368,0.553,2.41,1.113,3.125c0.911,1.159,2.214,1.738,3.906,1.738
	c1.263,0,2.236-0.296,2.92-0.889c0.684-0.592,1.025-1.279,1.025-2.061c0-0.742-0.325-1.406-0.977-1.993
	c-0.651-0.586-2.161-1.139-4.531-1.66c-3.881-0.872-6.647-2.031-8.302-3.477c-1.667-1.446-2.5-3.288-2.5-5.528
	c0-1.472,0.427-2.862,1.279-4.17s2.136-2.337,3.849-3.086C335.376,0.374,337.723,0,340.705,0c3.659,0,6.449,0.68,8.37,2.041
	c1.92,1.361,3.063,3.525,3.428,6.495l-8.341,0.488c-0.222-1.289-0.687-2.227-1.396-2.813c-0.71-0.586-1.689-0.879-2.939-0.879
	c-1.028,0-1.804,0.218-2.324,0.654c-0.521,0.437-0.781,0.967-0.781,1.592c0,0.456,0.215,0.866,0.645,1.23
	c0.416,0.378,1.406,0.729,2.969,1.055c3.867,0.833,6.638,1.677,8.312,2.529c1.673,0.853,2.891,1.911,3.652,3.174
	s1.143,2.676,1.143,4.239c0,1.836-0.508,3.529-1.523,5.078c-1.016,1.55-2.436,2.725-4.258,3.526
	c-1.823,0.801-4.122,1.201-6.896,1.201c-4.87,0-8.243-0.938-10.118-2.812C328.771,24.923,327.709,22.541,327.462,19.65z"/>
<path fill="#35395D" d="M358.325,0.488h8.868v28.635h-8.868V0.488z"/>
<path fill="#35395D" d="M373.66,0.488h8.849v10.821l9.269-10.821h11.769l-10.45,10.808l10.919,17.827h-10.896l-6.038-11.776
	l-4.571,4.789v6.987h-8.849V0.488z"/>
</svg>
